<?xml version="1.0" encoding="UTF-8" standalone="no"?><!DOCTYPE svg PUBLIC "-//W3C//DTD SVG 1.1//EN" "http://www.w3.org/Graphics/SVG/1.1/DTD/svg11.dtd"><svg width="100%" height="100%" viewBox="0 0 512 512" version="1.1" xmlns="http://www.w3.org/2000/svg" xmlns:xlink="http://www.w3.org/1999/xlink" xml:space="preserve" xmlns:serif="http://www.serif.com/" style="fill-rule:evenodd;clip-rule:evenodd;stroke-linejoin:round;stroke-miterlimit:2;"><path d="M114.383,64.895c57.32,43.18 118.984,130.719 141.617,177.695l0,124.08c0,-2.641 -1.016,0.343 -3.203,6.773c-11.813,34.812 -57.953,170.68 -163.461,62.062c-55.556,-57.188 -29.836,-114.375 71.289,-131.641c-57.852,9.875 -122.89,-6.446 -140.734,-70.43c-5.141,-18.406 -13.891,-131.781 -13.891,-147.094c0,-76.703 67.023,-52.593 108.383,-21.445m283.234,-0c-57.32,43.18 -118.984,130.719 -141.617,177.695l0,124.08c0,-2.641 1.016,0.343 3.203,6.773c11.813,34.812 57.953,170.68 163.461,62.062c55.555,-57.187 29.836,-114.375 -71.289,-131.64c57.852,9.875 122.89,-6.446 140.734,-70.43c5.141,-18.407 13.891,-131.782 13.891,-147.095c-0,-76.703 -67.016,-52.593 -108.383,-21.445" style="fill-rule:nonzero;"/></svg>