<?xml version="1.0" encoding="UTF-8" standalone="no"?><!DOCTYPE svg PUBLIC "-//W3C//DTD SVG 1.1//EN" "http://www.w3.org/Graphics/SVG/1.1/DTD/svg11.dtd"><svg width="100%" height="100%" viewBox="0 0 512 512" version="1.1" xmlns="http://www.w3.org/2000/svg" xmlns:xlink="http://www.w3.org/1999/xlink" xml:space="preserve" xmlns:serif="http://www.serif.com/" style="fill-rule:evenodd;clip-rule:evenodd;stroke-linejoin:round;stroke-miterlimit:2;"><path id="path1" d="M326.57,66c-4.9,8.698 -9.298,17.695 -13.297,26.893c-38.044,-5.698 -76.726,-5.698 -114.77,0c-3.899,-9.198 -8.398,-18.195 -13.296,-26.893c-35.728,6.097 -70.511,16.818 -103.473,31.891c-65.384,96.875 -83.079,191.25 -74.28,284.326c38.289,28.292 81.178,49.886 126.866,63.683c10.297,-13.797 19.395,-28.493 27.193,-43.788c-14.797,-5.499 -29.093,-12.397 -42.79,-20.395c3.6,-2.6 7.099,-5.299 10.498,-7.898c80.279,37.79 173.255,37.79 253.633,-0c3.4,2.8 6.899,5.499 10.498,7.898c-13.697,8.098 -27.993,14.896 -42.889,20.495c7.798,15.296 16.895,29.992 27.193,43.788c45.687,-13.796 88.575,-35.29 126.868,-63.583c10.395,-107.972 -17.797,-201.547 -74.484,-284.425c-32.907,-15.1 -67.665,-25.79 -103.37,-31.792l-0.1,-0.2Zm-153.86,258.932c-24.694,0 -45.188,-22.394 -45.188,-50.087c0,-27.693 19.694,-50.187 45.088,-50.187c25.394,0 45.588,22.594 45.188,50.187c-0.4,27.593 -19.895,50.087 -45.088,50.087Zm166.556,0c-24.794,0 -45.088,-22.394 -45.088,-50.087c0,-27.693 19.695,-50.187 45.088,-50.187c25.393,0 45.488,22.594 45.088,50.187c-0.4,27.593 -19.895,50.087 -45.088,50.087Z" style="fill-rule:nonzero;"/></svg>