<?xml version="1.0" encoding="UTF-8" standalone="no"?><!DOCTYPE svg PUBLIC "-//W3C//DTD SVG 1.1//EN" "http://www.w3.org/Graphics/SVG/1.1/DTD/svg11.dtd"><svg width="100%" height="100%" viewBox="0 0 512 512" version="1.1" xmlns="http://www.w3.org/2000/svg" xmlns:xlink="http://www.w3.org/1999/xlink" xml:space="preserve" xmlns:serif="http://www.serif.com/" style="fill-rule:evenodd;clip-rule:evenodd;stroke-linejoin:round;stroke-miterlimit:2;"><path d="M480,256c0,-124.8 -99.2,-224 -224,-224c-124.8,0 -224,99.2 -224,224c0,112 83.2,204.8 188.8,220.8l0,-156.8l-57.6,0l0,-64l57.6,0l0,-48c0,-57.6 32,-86.4 83.2,-86.4c25.6,0 51.2,3.2 51.2,3.2l0,54.4l-28.8,0c-28.8,0 -35.2,16 -35.2,35.2l0,41.6l60.8,0l-9.6,64l-51.2,0l0,156.8c105.6,-16 188.8,-108.8 188.8,-220.8" style="fill-rule:nonzero;"/></svg>