<?xml version="1.0" encoding="UTF-8" standalone="no"?><!DOCTYPE svg PUBLIC "-//W3C//DTD SVG 1.1//EN" "http://www.w3.org/Graphics/SVG/1.1/DTD/svg11.dtd"><svg width="100%" height="100%" viewBox="0 0 512 512" version="1.1" xmlns="http://www.w3.org/2000/svg" xmlns:xlink="http://www.w3.org/1999/xlink" xml:space="preserve" xmlns:serif="http://www.serif.com/" style="fill-rule:evenodd;clip-rule:evenodd;stroke-linejoin:round;stroke-miterlimit:2;"><path d="M438.4,102.4l-60.8,-60.8c-6.4,-6.4 -12.8,-9.6 -22.4,-9.6l-275.2,0c-9.6,0 -16,6.4 -16,16l-0,416c-0,9.6 6.4,16 16,16l352,0c9.6,0 16,-6.4 16,-16l-0,-339.2c-0,-9.6 -3.2,-16 -9.6,-22.4m-22.4,345.6l-320,0l-0,-384l224,0l-0,80c-0,9.6 6.4,16 16,16l80,0l-0,288Zm-64,-320l-0,-64l64,64l-64,0Z" style="fill-rule:nonzero;"/><path d="M320,416l-192,0l96,-128l96,128Z" style="fill-rule:nonzero;"/><path d="M384,416l-160,0l80,-96l80,96Z" style="fill-rule:nonzero;"/><circle cx="352" cy="256" r="32"/></svg>