<?xml version="1.0" encoding="UTF-8" standalone="no"?><!DOCTYPE svg PUBLIC "-//W3C//DTD SVG 1.1//EN" "http://www.w3.org/Graphics/SVG/1.1/DTD/svg11.dtd"><svg width="100%" height="100%" viewBox="0 0 512 512" version="1.1" xmlns="http://www.w3.org/2000/svg" xmlns:xlink="http://www.w3.org/1999/xlink" xml:space="preserve" xmlns:serif="http://www.serif.com/" style="fill-rule:evenodd;clip-rule:evenodd;stroke-linejoin:round;stroke-miterlimit:2;"><path d="M256,32c-123.7,0 -224,100.3 -224,224c0,99 64.2,183 153.2,212.5c11.2,2.1 15.3,-4.9 15.3,-10.8c-0,-5.3 -0.2,-23 -0.3,-41.7c-62.3,13.6 -75.4,-26.4 -75.4,-26.4c-10.2,-25.9 -24.8,-32.8 -24.8,-32.8c-20.3,-13.9 1.6,-13.7 1.6,-13.7c22.5,1.6 34.3,23.1 34.3,23.1c19.9,34.2 52.4,24.3 65.2,18.6c2,-14.4 7.8,-24.3 14.3,-29.9c-49.9,-5.6 -102.1,-24.8 -102.1,-110.7c-0,-24.5 8.8,-44.4 23.1,-60.1c-2.4,-5.6 -10,-28.4 2.2,-59.2c-0,0 18.8,-6 61.6,22.9c17.8,-5 37,-7.4 56.1,-7.5c19,0.1 38.2,2.5 56.1,7.5c42.8,-29 61.5,-22.9 61.5,-22.9c12.2,30.9 4.6,53.6 2.2,59.2c14.4,15.7 23.1,35.7 23.1,60.1c-0,86 -52.4,105 -102.3,110.5c8.1,7 15.2,20.6 15.2,41.5c-0,30 -0.3,54.1 -0.3,61.5c-0,6 4,13 15.4,10.8c88.7,-29.6 152.8,-113.5 152.8,-212.5c0,-123.7 -100.3,-224 -224,-224" style="fill-rule:nonzero;"/></svg>