<?xml version="1.0" encoding="UTF-8" standalone="no"?><!DOCTYPE svg PUBLIC "-//W3C//DTD SVG 1.1//EN" "http://www.w3.org/Graphics/SVG/1.1/DTD/svg11.dtd"><svg width="100%" height="100%" viewBox="0 0 512 512" version="1.1" xmlns="http://www.w3.org/2000/svg" xmlns:xlink="http://www.w3.org/1999/xlink" xml:space="preserve" xmlns:serif="http://www.serif.com/" style="fill-rule:evenodd;clip-rule:evenodd;stroke-linejoin:round;stroke-miterlimit:2;"><path d="M472.392,211.175l-0.615,-1.623l-60.943,-159.044c-2.556,-6.346 -8.924,-10.373 -15.754,-9.962c-3.33,0.201 -6.526,1.39 -9.177,3.414c-2.581,2.141 -4.463,5.007 -5.401,8.227l-41.132,125.887l-166.628,-0l-41.132,-125.915c-1.88,-6.961 -8.242,-11.832 -15.451,-11.832c-6.578,-0 -12.515,4.054 -14.908,10.181l-61.027,158.988l-0.616,1.595c-17.946,46.952 -2.557,100.497 37.579,130.756l0.196,0.168l0.559,0.392l92.842,69.533l45.889,34.752l27.981,21.126c6.701,5.125 16.075,5.125 22.777,0l27.981,-21.126l45.889,-34.752l93.401,-69.953l0.252,-0.196c39.995,-30.297 55.33,-83.718 37.494,-130.616l-0.056,0Z" style="fill-rule:nonzero;"/></svg>