<?xml version="1.0" encoding="UTF-8" standalone="no"?><!DOCTYPE svg PUBLIC "-//W3C//DTD SVG 1.1//EN" "http://www.w3.org/Graphics/SVG/1.1/DTD/svg11.dtd"><svg width="100%" height="100%" viewBox="0 0 512 512" version="1.1" xmlns="http://www.w3.org/2000/svg" xmlns:xlink="http://www.w3.org/1999/xlink" xml:space="preserve" xmlns:serif="http://www.serif.com/" style="fill-rule:evenodd;clip-rule:evenodd;stroke-linejoin:round;stroke-miterlimit:2;"><path d="M256.1,72.3c59.9,0 67,0.3 90.6,1.3c21.9,1 33.7,4.6 41.6,7.7c10.4,4 17.9,8.9 25.7,16.7c7.9,7.9 12.7,15.3 16.8,25.7c3.1,7.9 6.7,19.8 7.7,41.6c1.1,23.6 1.3,30.7 1.3,90.5c0,59.8 -0.3,66.9 -1.3,90.5c-1,21.9 -4.6,33.7 -7.7,41.6c-4,10.4 -8.9,17.9 -16.7,25.7c-7.9,7.9 -15.3,12.7 -25.7,16.8c-7.9,3.1 -19.8,6.7 -41.6,7.7c-23.6,1.1 -30.7,1.3 -90.6,1.3c-59.9,0 -67,-0.3 -90.6,-1.3c-21.9,-1 -33.7,-4.6 -41.6,-7.7c-10.4,-4 -17.9,-8.9 -25.7,-16.7c-7.9,-7.9 -12.7,-15.3 -16.8,-25.7c-3.1,-7.9 -6.7,-19.8 -7.7,-41.6c-1.1,-23.6 -1.3,-30.7 -1.3,-90.5c0,-59.8 0.3,-66.9 1.3,-90.5c1,-21.9 4.6,-33.7 7.7,-41.6c4,-10.4 8.9,-17.9 16.7,-25.7c7.9,-7.9 15.3,-12.7 25.7,-16.8c7.9,-3.1 19.8,-6.7 41.6,-7.7c23.7,-1 30.8,-1.3 90.6,-1.3m0,-40.3c-60.8,0 -68.4,0.3 -92.4,1.3c-23.8,1 -40.2,4.9 -54.3,10.4c-14.8,5.8 -27.3,13.4 -39.7,25.9c-12.5,12.4 -20.1,24.9 -25.9,39.6c-5.5,14.3 -9.4,30.5 -10.4,54.3c-1.1,24.1 -1.3,31.6 -1.3,92.5c0,60.9 0.3,68.4 1.3,92.3c1.1,23.8 4.9,40.2 10.4,54.3c5.8,14.8 13.4,27.3 25.9,39.7c12.4,12.4 24.9,20.1 39.6,25.8c14.3,5.5 30.5,9.4 54.3,10.4c23.9,1.1 31.5,1.3 92.4,1.3c60.9,-0 68.5,-0.3 92.4,-1.3c23.8,-1.1 40.2,-4.9 54.3,-10.4c14.7,-5.7 27.2,-13.4 39.6,-25.8c12.4,-12.4 20.1,-24.9 25.8,-39.6c5.5,-14.3 9.4,-30.5 10.4,-54.3c1.1,-23.9 1.3,-31.5 1.3,-92.3c0,-60.8 -0.3,-68.4 -1.3,-92.3c-1.1,-23.8 -4.9,-40.2 -10.4,-54.3c-5.5,-14.9 -13.1,-27.4 -25.6,-39.8c-12.4,-12.4 -24.9,-20.1 -39.6,-25.8c-14.3,-5.6 -30.5,-9.5 -54.3,-10.5c-23.9,-1.1 -31.6,-1.4 -92.5,-1.4" style="fill-rule:nonzero;"/><path d="M256.1,140.9c-63.5,0 -115.1,51.6 -115.1,115.1c0,63.5 51.5,115.1 115.2,115.1c63.7,0 115.1,-51.6 115.1,-115.1c0,-63.4 -51.5,-115.1 -115.2,-115.1m0,189.8c-41.2,0 -74.7,-33.4 -74.7,-74.6c0,-41.2 33.4,-74.6 74.7,-74.6c41.3,0 74.7,33.4 74.7,74.6c0,41.2 -33.4,74.6 -74.7,74.6m146.6,-194.3c0,14.9 -12.1,26.9 -26.9,26.9c-14.8,0 -26.9,-12 -26.9,-26.9c0,-14.9 12.1,-26.9 26.9,-26.9c14.8,0 26.9,12.1 26.9,26.9" style="fill-rule:nonzero;"/></svg>