<?xml version="1.0" encoding="UTF-8" standalone="no"?><!DOCTYPE svg PUBLIC "-//W3C//DTD SVG 1.1//EN" "http://www.w3.org/Graphics/SVG/1.1/DTD/svg11.dtd"><svg width="100%" height="100%" viewBox="0 0 512 512" version="1.1" xmlns="http://www.w3.org/2000/svg" xmlns:xlink="http://www.w3.org/1999/xlink" xml:space="preserve" xmlns:serif="http://www.serif.com/" style="fill-rule:evenodd;clip-rule:evenodd;stroke-linejoin:round;stroke-miterlimit:2;"><path d="M480,64l0,384c0,19.2 -16,32 -32,32l-384,0c-19.2,0 -32,-16 -32,-32l0,-384c0,-19.2 16,-32 32,-32l384,0c16,0 32,16 32,32m-313.6,140.8l-67.2,0l0,211.2l67.2,0l0,-211.2Zm3.2,-73.6c0,-22.4 -16,-38.4 -38.4,-38.4c-22.4,0 -38.4,16 -38.4,38.4c0,22.4 16,38.4 38.4,38.4c19.2,0 38.4,-16 38.4,-38.4m243.2,153.6c0,-64 -41.6,-89.6 -80,-89.6c-25.6,0 -51.2,12.8 -67.2,35.2l0,-25.6l-60.8,0l0,211.2l67.2,0l0,-115.2c-6.4,-22.4 12.8,-44.8 35.2,-44.8l3.2,0c22.4,0 35.2,12.8 35.2,44.8l0,112l67.2,0l0,-128Z" style="fill-rule:nonzero;"/></svg>