<?xml version="1.0" encoding="UTF-8" standalone="no"?><!DOCTYPE svg PUBLIC "-//W3C//DTD SVG 1.1//EN" "http://www.w3.org/Graphics/SVG/1.1/DTD/svg11.dtd"><svg width="100%" height="100%" viewBox="0 0 512 512" version="1.1" xmlns="http://www.w3.org/2000/svg" xmlns:xlink="http://www.w3.org/1999/xlink" xml:space="preserve" xmlns:serif="http://www.serif.com/" style="fill-rule:evenodd;clip-rule:evenodd;stroke-linejoin:round;stroke-miterlimit:2;"><path d="M491.265,116.695c-7.306,-53.723 -54.64,-96.06 -110.752,-104.264c-9.467,-1.386 -45.335,-6.431 -128.423,-6.431l-0.62,-0c-83.11,-0 -100.941,5.045 -110.408,6.431c-54.55,7.977 -104.365,46.02 -116.451,100.378c-5.813,26.77 -6.434,56.45 -5.354,83.675c1.54,39.042 1.838,78.016 5.423,116.9c2.479,25.834 6.802,51.457 12.936,76.674c11.49,46.587 57.996,85.357 103.56,101.174c48.817,16.495 101.247,19.232 151.516,7.908c5.522,-1.271 10.995,-2.749 16.406,-4.431c12.201,-3.84 26.517,-8.136 37.04,-15.68c0.291,-0.213 0.469,-0.549 0.482,-0.91l0,-37.678c-0.004,-0.337 -0.163,-0.655 -0.43,-0.86c-0.269,-0.207 -0.617,-0.284 -0.948,-0.209c-32.218,7.61 -65.217,11.424 -98.322,11.363c-56.984,0 -72.31,-26.747 -76.7,-37.883c-3.526,-9.617 -5.767,-19.657 -6.663,-29.861c-0.027,-0.534 0.342,-1.014 0.866,-1.123c0.169,-0.037 0.345,-0.034 0.513,0.01c31.682,7.558 64.142,11.371 96.713,11.362c7.836,0 15.648,0 23.484,-0.204c32.766,-0.91 67.3,-2.568 99.539,-8.795c0.804,-0.16 1.608,-0.296 2.298,-0.5c50.85,-9.658 99.24,-39.974 104.158,-116.74c0.184,-3.023 0.643,-31.657 0.643,-34.793c0.023,-10.658 3.47,-75.607 -0.506,-115.513m-78.262,191.552l-53.468,0l0,-129.534c0,-27.27 -11.49,-41.178 -34.858,-41.178c-25.69,0 -38.557,16.453 -38.557,48.95l0,70.903l-53.147,0l0,-70.903c0,-32.497 -12.89,-48.95 -38.58,-48.95c-23.23,0 -34.834,13.907 -34.857,41.178l0,129.534l-53.423,0l0,-133.466c0,-27.27 7.039,-48.935 21.116,-64.995c14.522,-16.02 33.571,-24.247 57.215,-24.247c27.366,0 48.046,10.408 61.833,31.202l13.304,22.089l13.327,-22.09c13.787,-20.793 34.467,-31.201 61.787,-31.201c23.622,0 42.67,8.226 57.238,24.247c14.078,16.045 21.117,37.71 21.116,64.995l-0.046,133.466Z" style="fill-rule:nonzero;"/></svg>