<?xml version="1.0" encoding="UTF-8" standalone="no"?><!DOCTYPE svg PUBLIC "-//W3C//DTD SVG 1.1//EN" "http://www.w3.org/Graphics/SVG/1.1/DTD/svg11.dtd"><svg width="100%" height="100%" viewBox="0 0 512 512" version="1.1" xmlns="http://www.w3.org/2000/svg" xmlns:xlink="http://www.w3.org/1999/xlink" xml:space="preserve" xmlns:serif="http://www.serif.com/" style="fill-rule:evenodd;clip-rule:evenodd;stroke-linejoin:round;stroke-miterlimit:2;"><path d="M0,0l0,512l512,0l0,-512l-512,0Zm299.712,381.12c-4.669,1.721 -9.616,2.568 -14.592,2.496c-15.956,0.421 -31.302,-6.266 -41.856,-18.24c-17.989,-22.581 -33.864,-46.768 -47.424,-72.256l-24.448,0l0,52.736c0,19.584 4.48,23.68 13.056,24.896l16.384,2.24l0,9.152c-7.808,0 -26.176,-0.96 -40.448,-0.96c-14.272,0 -29.632,0.576 -38.144,0.96l0,-9.152l11.84,-2.24c8.192,-1.536 12.928,-5.312 12.928,-24.896l0,-124.928c-0.384,-20.032 -5.12,-23.488 -13.376,-25.024l-11.84,-2.112l0,-9.216l33.216,0c12.672,0 28.672,-0.96 47.424,-0.96c35.584,0 63.424,16.384 63.424,51.776c-1.112,25.865 -19.239,47.858 -44.416,53.888c13.306,23.97 29.186,46.418 47.36,66.944c7.71,9.405 18.82,15.408 30.912,16.704l0,8.192Zm65.984,-194.56c0,13.952 -2.56,22.912 -9.6,30.592c-8.128,8.64 -18.176,12.288 -29.44,12.288c-10.529,0.125 -20.663,-4.063 -28.032,-11.584c-10.496,-10.624 -10.368,-22.592 -10.368,-43.456c0,-20.864 -0.128,-32.896 10.368,-43.52c7.319,-7.586 17.493,-11.768 28.032,-11.52c18.24,-0 30.4,9.792 35.968,23.296l-14.72,6.016c-3.52,-9.216 -10.816,-14.528 -21.248,-14.528c-5.95,-0.042 -11.658,2.394 -15.744,6.72c-5.184,5.76 -6.464,11.904 -6.464,33.6c0,21.696 1.216,27.968 6.464,33.728c4.102,4.281 9.817,6.65 15.744,6.528c6.637,0.145 13.01,-2.643 17.408,-7.616c3.904,-4.544 5.376,-10.048 5.376,-17.024l0,-6.08l-20.736,0l0,-14.016l36.992,0l0,16.576Z" style="fill-rule:nonzero;"/><path d="M238.912,237.184c0,-25.216 -15.744,-39.104 -42.304,-39.104l-25.6,0l0,79.296c7.36,0.576 11.84,0.96 22.784,0.96c28.032,0.576 45.12,-16.256 45.12,-41.152" style="fill-rule:nonzero;"/></svg>