<?xml version="1.0" encoding="UTF-8" standalone="no"?><!DOCTYPE svg PUBLIC "-//W3C//DTD SVG 1.1//EN" "http://www.w3.org/Graphics/SVG/1.1/DTD/svg11.dtd"><svg width="100%" height="100%" viewBox="0 0 512 512" version="1.1" xmlns="http://www.w3.org/2000/svg" xmlns:xlink="http://www.w3.org/1999/xlink" xml:space="preserve" xmlns:serif="http://www.serif.com/" style="fill-rule:evenodd;clip-rule:evenodd;stroke-linejoin:round;stroke-miterlimit:2;"><g><path d="M256,32c-123.712,0 -224,100.288 -224,224c0,123.712 100.288,224 224,224c123.712,0 224,-100.288 224,-224c0,-123.712 -100.288,-224 -224,-224m103.828,152.338c-3.371,35.42 -17.957,121.374 -25.378,161.045c-3.14,16.786 -9.323,22.414 -15.308,22.965c-13.008,1.197 -22.886,-8.597 -35.485,-16.855c-19.715,-12.923 -30.853,-20.968 -49.989,-33.579c-22.116,-14.574 -7.779,-22.584 4.825,-35.675c3.298,-3.426 60.612,-55.557 61.722,-60.287c0.139,-0.591 0.268,-2.796 -1.042,-3.96c-1.31,-1.164 -3.243,-0.766 -4.638,-0.449c-1.977,0.449 -33.472,21.266 -94.484,62.451c-8.94,6.139 -17.037,9.13 -24.292,8.973c-7.998,-0.173 -23.383,-4.522 -34.82,-8.24c-14.028,-4.56 -25.177,-6.971 -24.206,-14.715c0.505,-4.033 6.06,-8.159 16.664,-12.376c65.3,-28.45 108.844,-47.206 130.632,-56.269c62.207,-25.874 75.133,-30.369 83.558,-30.517c1.853,-0.033 5.996,0.427 8.68,2.604c2.266,1.839 2.89,4.323 3.188,6.066c0.298,1.743 0.67,5.715 0.375,8.818l-0.002,-0Z" style="fill-rule:nonzero;"/></g></svg>