<?xml version="1.0" encoding="UTF-8" standalone="no"?><!DOCTYPE svg PUBLIC "-//W3C//DTD SVG 1.1//EN" "http://www.w3.org/Graphics/SVG/1.1/DTD/svg11.dtd"><svg width="100%" height="100%" viewBox="0 0 512 512" version="1.1" xmlns="http://www.w3.org/2000/svg" xmlns:xlink="http://www.w3.org/1999/xlink" xml:space="preserve" xmlns:serif="http://www.serif.com/" style="fill-rule:evenodd;clip-rule:evenodd;stroke-linejoin:round;stroke-miterlimit:2;"><g><path d="M259.472,480l-0.134,0c-66.842,-0.448 -118.227,-22.49 -152.768,-65.498c-30.688,-38.304 -46.547,-91.571 -47.085,-158.323l0,-0.314c0.538,-66.797 16.397,-120.019 47.13,-158.323c34.496,-43.053 85.926,-65.094 152.723,-65.542l0.269,0c51.251,0.358 94.125,13.53 127.411,39.155c31.315,24.102 53.357,58.419 65.498,102.054l-38.08,10.618c-20.608,-73.92 -72.755,-111.686 -155.008,-112.269c-54.298,0.403 -95.379,17.472 -122.08,50.714c-24.954,31.136 -37.856,76.115 -38.349,133.728c0.493,57.613 13.395,102.592 38.394,133.728c26.701,33.286 67.782,50.355 122.08,50.714c48.966,-0.358 81.357,-11.782 108.282,-38.17c30.733,-30.106 30.195,-67.066 20.339,-89.555c-5.779,-13.261 -16.307,-24.282 -30.509,-32.659c-3.584,25.222 -11.603,45.651 -23.968,61.062c-16.531,20.563 -39.962,31.808 -69.619,33.421c-22.445,1.21 -44.083,-4.077 -60.838,-14.963c-19.846,-12.858 -31.45,-32.48 -32.704,-55.328c-1.21,-22.221 7.616,-42.65 24.819,-57.523c16.442,-14.202 39.558,-22.534 66.886,-24.102c20.115,-1.12 38.976,-0.224 56.358,2.643c-2.33,-13.843 -6.989,-24.864 -13.978,-32.794c-9.587,-10.931 -24.416,-16.486 -44.038,-16.621l-0.538,0c-15.77,0 -37.184,4.346 -50.803,24.64l-32.794,-21.997c18.278,-27.149 47.936,-42.112 83.597,-42.112l0.806,0c59.629,0.358 95.155,36.87 98.694,100.576c2.016,0.851 4.032,1.747 6.003,2.643c27.821,13.082 48.16,32.883 58.867,57.299c14.874,34.003 16.262,89.421 -28.896,133.638c-34.541,33.779 -76.429,49.056 -135.834,49.459l-0.134,0l0.001,0.001Zm18.726,-218.221c-4.525,0 -9.094,0.134 -13.798,0.403c-34.272,1.926 -55.642,17.651 -54.432,40.006c1.254,23.43 27.104,34.317 51.968,32.973c22.848,-1.21 52.595,-10.125 57.613,-69.261c-12.634,-2.733 -26.477,-4.122 -41.35,-4.122l-0.001,0.001Z" style="fill-rule:nonzero;"/></g></svg>