<?xml version="1.0" encoding="UTF-8" standalone="no"?><!DOCTYPE svg PUBLIC "-//W3C//DTD SVG 1.1//EN" "http://www.w3.org/Graphics/SVG/1.1/DTD/svg11.dtd"><svg width="100%" height="100%" viewBox="0 0 512 512" version="1.1" xmlns="http://www.w3.org/2000/svg" xmlns:xlink="http://www.w3.org/1999/xlink" xml:space="preserve" xmlns:serif="http://www.serif.com/" style="fill-rule:evenodd;clip-rule:evenodd;stroke-linejoin:round;stroke-miterlimit:2;"><path d="M479.8,151.8c-2,43.6 -32.5,103.3 -91.4,179.1c-60.9,79.2 -112.4,118.8 -154.6,118.8c-26.1,0 -48.2,-24.1 -66.2,-72.3c-12.1,-44.2 -24.1,-88.4 -36.1,-132.6c-13.4,-48.2 -27.7,-72.3 -43.1,-72.3c-3.3,0 -15.1,7.1 -35.2,21.1l-21.2,-27.1c22.1,-19.4 43.9,-38.9 65.4,-58.3c29.5,-25.4 51.6,-38.8 66.4,-40.2c34.8,-3.3 56.4,20.5 64.4,71.5c8.7,55 14.7,89.3 18.1,102.6c10.1,45.7 21.1,68.5 33.2,68.5c9.4,0 23.5,-14.8 42.3,-44.5c18.7,-29.6 28.8,-52.2 30.2,-67.6c2.7,-25.6 -7.4,-38.4 -30.2,-38.4c-10.8,0 -21.8,2.5 -33.2,7.4c22.1,-72.1 64.1,-107.1 126.2,-105.1c45.9,1.2 67.7,31.1 65,89.4" style="fill-rule:nonzero;"/></svg>