<?xml version="1.0" encoding="UTF-8" standalone="no"?><!DOCTYPE svg PUBLIC "-//W3C//DTD SVG 1.1//EN" "http://www.w3.org/Graphics/SVG/1.1/DTD/svg11.dtd"><svg width="100%" height="100%" viewBox="0 0 512 512" version="1.1" xmlns="http://www.w3.org/2000/svg" xmlns:xlink="http://www.w3.org/1999/xlink" xml:space="preserve" xmlns:serif="http://www.serif.com/" style="fill-rule:evenodd;clip-rule:evenodd;stroke-linejoin:round;stroke-miterlimit:2;"><path d="M433.147,77.802c-46.996,-47.056 -109.5,-72.984 -176.097,-73.008c-137.23,-0 -248.913,111.673 -248.961,248.938c-0.024,43.88 11.448,86.711 33.233,124.457l-35.322,129.017l131.977,-34.618c36.36,19.84 77.305,30.284 118.966,30.297l0.107,0c137.206,0 248.903,-111.685 248.95,-248.95c0.024,-66.525 -25.844,-129.065 -72.853,-176.121l0,-0.012Zm-176.097,383.04l-0.083,-0c-37.125,-0.011 -73.545,-9.992 -105.321,-28.84l-7.557,-4.488l-78.32,20.543l20.902,-76.363l-4.918,-7.83c-20.71,-32.946 -31.657,-71.026 -31.633,-110.12c0.047,-114.083 92.87,-206.907 207.015,-206.907c55.268,0.024 107.22,21.57 146.289,60.689c39.07,39.106 60.569,91.105 60.545,146.385c-0.048,114.096 -92.87,206.92 -206.919,206.92l0,0.011Zm113.499,-154.968c-6.22,-3.116 -36.802,-18.157 -42.509,-20.234c-5.705,-2.077 -9.847,-3.115 -13.99,3.116c-4.142,6.231 -16.067,20.245 -19.696,24.387c-3.629,4.154 -7.258,4.668 -13.478,1.551c-6.218,-3.115 -26.26,-9.68 -50.027,-30.869c-18.49,-16.497 -30.978,-36.861 -34.606,-43.093c-3.63,-6.23 -0.382,-9.597 2.72,-12.689c2.794,-2.793 6.22,-7.27 9.336,-10.899c3.116,-3.629 4.143,-6.23 6.219,-10.373c2.078,-4.154 1.039,-7.782 -0.512,-10.899c-1.553,-3.115 -13.99,-33.734 -19.184,-46.184c-5.05,-12.128 -10.182,-10.481 -13.99,-10.684c-3.63,-0.18 -7.77,-0.215 -11.925,-0.215c-4.155,-0 -10.888,1.552 -16.593,7.783c-5.706,6.23 -21.774,21.284 -21.774,51.89c0,30.606 22.288,60.2 25.403,64.355c3.115,4.154 43.868,66.979 106.264,93.933c14.839,6.41 26.43,10.242 35.465,13.107c14.899,4.739 28.459,4.07 39.178,2.47c11.95,-1.79 36.803,-15.052 41.983,-29.58c5.18,-14.528 5.18,-26.99 3.63,-29.58c-1.552,-2.59 -5.706,-4.154 -11.925,-7.27l0.011,-0.023Z"/></svg>