<?xml version="1.0" encoding="UTF-8" standalone="no"?><!DOCTYPE svg PUBLIC "-//W3C//DTD SVG 1.1//EN" "http://www.w3.org/Graphics/SVG/1.1/DTD/svg11.dtd"><svg width="100%" height="100%" viewBox="0 0 512 512" version="1.1" xmlns="http://www.w3.org/2000/svg" xmlns:xlink="http://www.w3.org/1999/xlink" xml:space="preserve" xmlns:serif="http://www.serif.com/" style="fill-rule:evenodd;clip-rule:evenodd;stroke-linejoin:round;stroke-miterlimit:2;"><path d="M100.1,120.5c-3.8,0 -7.2,1.4 -8.8,4c-1.7,2.8 -1.4,6.3 0.4,9.9l43.7,75.6c0.1,0.2 0.1,0.3 -0,0.3l-68.8,121.2c-1.8,3.6 -1.7,7.2 -0,9.9c1.7,2.6 4.6,4.4 8.4,4.4l64.6,0c9.6,0 14.3,-6.6 17.6,-12.5c-0,0 67.1,-118.7 69.7,-123.4c-0.3,-0.4 -44.5,-77.4 -44.5,-77.4c-3.2,-5.7 -8,-12.1 -18,-12.1l-64.3,0.1Zm271.4,-88.5c-9.6,0 -13.8,6 -17.3,12.3c0,0 -139.2,246.8 -143.8,254.9c0.3,0.4 91.8,168.4 91.8,168.4c3.2,5.7 8.1,12.3 18,12.3l64.6,0c3.9,0 6.9,-1.5 8.6,-4.1c1.8,-2.8 1.7,-6.4 -0.2,-10l-91,-166.5c-0.1,-0.2 -0.1,-0.3 0,-0.4l143.1,-252.8c1.8,-3.6 1.8,-7.2 0.2,-10c-1.7,-2.6 -4.7,-4.1 -8.6,-4.1l-65.4,0Z" style="fill-rule:nonzero;"/></svg>