<?xml version="1.0" encoding="UTF-8" standalone="no"?><!DOCTYPE svg PUBLIC "-//W3C//DTD SVG 1.1//EN" "http://www.w3.org/Graphics/SVG/1.1/DTD/svg11.dtd"><svg width="100%" height="100%" viewBox="0 0 512 512" version="1.1" xmlns="http://www.w3.org/2000/svg" xmlns:xlink="http://www.w3.org/1999/xlink" xml:space="preserve" xmlns:serif="http://www.serif.com/" style="fill-rule:evenodd;clip-rule:evenodd;stroke-linejoin:round;stroke-miterlimit:2;"><path d="M470.4,147.2c-6.4,-19.2 -19.2,-35.2 -38.4,-38.4c-35.2,-9.6 -176,-9.6 -176,-9.6c-0,-0 -140.8,-0 -176,9.6c-19.2,6.4 -32,19.2 -38.4,38.4c-9.6,35.2 -9.6,108.8 -9.6,108.8c-0,0 -0,73.6 9.6,108.8c6.4,19.2 19.2,35.2 38.4,38.4c35.2,9.6 176,9.6 176,9.6c-0,0 140.8,0 176,-9.6c19.2,-6.4 35.2,-19.2 38.4,-38.4c9.6,-35.2 9.6,-108.8 9.6,-108.8c-0,0 -0,-73.6 -9.6,-108.8m-259.2,176l-0,-134.4l115.2,67.2l-115.2,67.2Z" style="fill-rule:nonzero;"/></svg>