<svg xmlns="http://www.w3.org/2000/svg" viewBox="0 0 512 512"><path d="M472.392 211.175l-.615-1.623-60.943-159.044c-2.556-6.346-8.924-10.373-15.754-9.962a16.792 16.792 0 00-9.177 3.414 16.793 16.793 0 00-5.401 8.227L339.37 178.074H172.742L131.61 52.159c-1.88-6.961-8.242-11.832-15.451-11.832a16.032 16.032 0 00-14.908 10.181L40.224 209.496l-.616 1.595c-17.946 46.952-2.557 100.497 37.579 130.756l.196.168.559.392 92.842 69.533 45.889 34.752 27.981 21.126c6.701 5.125 16.075 5.125 22.777 0l27.981-21.126 45.889-34.752 93.401-69.953.252-.196c39.995-30.297 55.33-83.718 37.494-130.616h-.056z"/></svg>