<svg xmlns="http://www.w3.org/2000/svg" viewBox="0 0 512 512"><path d="M491.265 116.695c-7.306-53.723-54.64-96.06-110.752-104.264C371.046 11.045 335.178 6 252.09 6h-.62c-83.11 0-100.941 5.045-110.408 6.431-54.55 7.977-104.365 46.02-116.451 100.378-5.813 26.77-6.434 56.45-5.354 83.675 1.54 39.042 1.838 78.016 5.423 116.9a544.415 544.415 0 0012.936 76.674c11.49 46.587 57.996 85.357 103.56 101.174a280.675 280.675 0 00151.516 7.908 226.196 226.196 0 0016.406-4.431c12.201-3.84 26.517-8.136 37.04-15.68.291-.213.469-.549.482-.91v-37.678a1.102 1.102 0 00-.43-.86 1.142 1.142 0 00-.948-.209 424.317 424.317 0 01-98.322 11.363c-56.984 0-72.31-26.747-76.7-37.883a116.297 116.297 0 01-6.663-29.861 1.094 1.094 0 01.866-1.123c.169-.037.345-.034.513.01a416.288 416.288 0 0096.713 11.362c7.836 0 15.648 0 23.484-.204 32.766-.91 67.3-2.568 99.539-8.795.804-.16 1.608-.296 2.298-.5 50.85-9.658 99.24-39.974 104.158-116.74.184-3.023.643-31.657.643-34.793.023-10.658 3.47-75.607-.506-115.513m-78.262 191.552h-53.468V178.713c0-27.27-11.49-41.178-34.858-41.178-25.69 0-38.557 16.453-38.557 48.95v70.903h-53.147v-70.903c0-32.497-12.89-48.95-38.58-48.95-23.23 0-34.834 13.907-34.857 41.178v129.534h-53.423V174.781c0-27.27 7.039-48.935 21.116-64.995 14.522-16.02 33.571-24.247 57.215-24.247 27.366 0 48.046 10.408 61.833 31.202l13.304 22.089 13.327-22.09c13.787-20.793 34.467-31.201 61.787-31.201 23.622 0 42.67 8.226 57.238 24.247 14.078 16.045 21.117 37.71 21.116 64.995l-.046 133.466z"/></svg>