<svg xmlns="http://www.w3.org/2000/svg" viewBox="0 0 512 512"><path d="M0 0v512h512V0H0zm299.712 381.12a40.5 40.5 0 01-14.592 2.496 53.927 53.927 0 01-41.856-18.24 470.998 470.998 0 01-47.424-72.256h-24.448v52.736c0 19.584 4.48 23.68 13.056 24.896l16.384 2.24v9.152c-7.808 0-26.176-.96-40.448-.96-14.272 0-29.632.576-38.144.96v-9.152l11.84-2.24c8.192-1.536 12.928-5.312 12.928-24.896V220.928c-.384-20.032-5.12-23.488-13.376-25.024l-11.84-2.112v-9.216h33.216c12.672 0 28.672-.96 47.424-.96 35.584 0 63.424 16.384 63.424 51.776-1.112 25.865-19.239 47.858-44.416 53.888a377.011 377.011 0 0047.36 66.944 46.375 46.375 0 0030.912 16.704v8.192zm65.984-194.56c0 13.952-2.56 22.912-9.6 30.592-8.128 8.64-18.176 12.288-29.44 12.288a38.618 38.618 0 01-28.032-11.584c-10.496-10.624-10.368-22.592-10.368-43.456 0-20.864-.128-32.896 10.368-43.52a37.736 37.736 0 0128.032-11.52c18.24 0 30.4 9.792 35.968 23.296l-14.72 6.016c-3.52-9.216-10.816-14.528-21.248-14.528a21.458 21.458 0 00-15.744 6.72c-5.184 5.76-6.464 11.904-6.464 33.6s1.216 27.968 6.464 33.728a21.21 21.21 0 0015.744 6.528 22.59 22.59 0 0017.408-7.616c3.904-4.544 5.376-10.048 5.376-17.024V184h-20.736v-14.016h36.992v16.576z"/><path d="M238.912 237.184c0-25.216-15.744-39.104-42.304-39.104h-25.6v79.296c7.36.576 11.84.96 22.784.96 28.032.576 45.12-16.256 45.12-41.152"/></svg>