<svg xmlns="http://www.w3.org/2000/svg" xmlns:xlink="http://www.w3.org/1999/xlink"><symbol viewBox="0 0 512 512" id="bluesky"><path d="M114.383 64.895C171.703 108.075 233.367 195.614 256 242.59v124.08c0-2.641-1.016.343-3.203 6.773-11.813 34.812-57.953 170.68-163.461 62.062C33.78 378.317 59.5 321.13 160.625 303.864c-57.852 9.875-122.89-6.446-140.734-70.43C14.75 215.028 6 101.653 6 86.34 6 9.637 73.023 33.747 114.383 64.895m283.234 0C340.297 108.075 278.633 195.614 256 242.59v124.08c0-2.641 1.016.343 3.203 6.773 11.813 34.812 57.953 170.68 163.461 62.062 55.555-57.187 29.836-114.375-71.289-131.64 57.852 9.875 122.89-6.446 140.734-70.43C497.25 215.028 506 101.653 506 86.34c0-76.703-67.016-52.593-108.383-21.445" /></symbol><symbol viewBox="0 0 512 512" id="discord"><path d="M326.57 66c-4.9 8.698-9.298 17.695-13.297 26.893a387.423 387.423 0 00-114.77 0c-3.899-9.198-8.398-18.195-13.296-26.893A417.826 417.826 0 0081.734 97.891C16.35 194.766-1.345 289.141 7.454 382.217c38.289 28.292 81.178 49.886 126.866 63.683 10.297-13.797 19.395-28.493 27.193-43.788-14.797-5.499-29.093-12.397-42.79-20.395 3.6-2.6 7.099-5.299 10.498-7.898 80.279 37.79 173.255 37.79 253.633 0 3.4 2.8 6.899 5.499 10.498 7.898-13.697 8.098-27.993 14.896-42.889 20.495 7.798 15.296 16.895 29.992 27.193 43.788 45.687-13.796 88.575-35.29 126.868-63.583 10.395-107.972-17.797-201.547-74.484-284.425A411.375 411.375 0 00326.67 66.2l-.1-.2zM172.71 324.932c-24.694 0-45.188-22.394-45.188-50.087 0-27.693 19.694-50.187 45.088-50.187 25.394 0 45.588 22.594 45.188 50.187-.4 27.593-19.895 50.087-45.088 50.087zm166.556 0c-24.794 0-45.088-22.394-45.088-50.087 0-27.693 19.695-50.187 45.088-50.187s45.488 22.594 45.088 50.187c-.4 27.593-19.895 50.087-45.088 50.087z" /></symbol><symbol viewBox="0 0 512 512" id="facebook"><path d="M480 256c0-124.8-99.2-224-224-224S32 131.2 32 256c0 112 83.2 204.8 188.8 220.8V320h-57.6v-64h57.6v-48c0-57.6 32-86.4 83.2-86.4 25.6 0 51.2 3.2 51.2 3.2v54.4h-28.8c-28.8 0-35.2 16-35.2 35.2V256H352l-9.6 64h-51.2v156.8C396.8 460.8 480 368 480 256" /></symbol><symbol viewBox="0 0 512 512" id="file-audio"><path d="M438.4 102.4l-60.8-60.8c-6.4-6.4-12.8-9.6-22.4-9.6H80c-9.6 0-16 6.4-16 16v416c0 9.6 6.4 16 16 16h352c9.6 0 16-6.4 16-16V124.8c0-9.6-3.2-16-9.6-22.4M416 448H96V64h224v80c0 9.6 6.4 16 16 16h80v288zm-64-320V64l64 64h-64z" /><path d="M288 280v48c13.248 0 24-10.752 24-24s-10.752-24-24-24" /><path d="M288 224v32c26.464 0 48 21.536 48 48s-21.536 48-48 48v32c44.192 0 80-35.808 80-80s-35.808-80-80-80m-80 128h-48v-96h48l48-32v160l-48-32z" /></symbol><symbol viewBox="0 0 512 512" id="file-image"><path d="M438.4 102.4l-60.8-60.8c-6.4-6.4-12.8-9.6-22.4-9.6H80c-9.6 0-16 6.4-16 16v416c0 9.6 6.4 16 16 16h352c9.6 0 16-6.4 16-16V124.8c0-9.6-3.2-16-9.6-22.4M416 448H96V64h224v80c0 9.6 6.4 16 16 16h80v288zm-64-320V64l64 64h-64z" /><path d="M320 416H128l96-128 96 128z" /><path d="M384 416H224l80-96 80 96z" /><circle cx="352" cy="256" r="32" /></symbol><symbol viewBox="0 0 512 512" id="file-video"><path d="M438.4 102.4l-60.8-60.8c-6.4-6.4-12.8-9.6-22.4-9.6H80c-9.6 0-16 6.4-16 16v416c0 9.6 6.4 16 16 16h352c9.6 0 16-6.4 16-16V124.8c0-9.6-3.2-16-9.6-22.4M416 448H96V64h224v80c0 9.6 6.4 16 16 16h80v288zm-64-320V64l64 64h-64z" /><path d="M215.168 356.416c-10.656 5.312-23.168-2.4-23.168-14.304V233.888c0-11.904 12.512-19.616 23.168-14.304l108.224 54.112c11.808 5.888 11.808 22.72 0 28.608l-108.224 54.112z" /></symbol><symbol viewBox="0 0 512 512" id="file"><path d="M438.4 102.4l-60.8-60.8c-6.4-6.4-12.8-9.6-22.4-9.6H80c-9.6 0-16 6.4-16 16v416c0 9.6 6.4 16 16 16h352c9.6 0 16-6.4 16-16V124.8c0-9.6-3.2-16-9.6-22.4M416 448H96V64h224v80c0 9.6 6.4 16 16 16h80v288zm-64-320V64l64 64h-64z" /></symbol><symbol viewBox="0 0 512 512" id="github"><path d="M256 32C132.3 32 32 132.3 32 256c0 99 64.2 183 153.2 212.5 11.2 2.1 15.3-4.9 15.3-10.8 0-5.3-.2-23-.3-41.7-62.3 13.6-75.4-26.4-75.4-26.4-10.2-25.9-24.8-32.8-24.8-32.8-20.3-13.9 1.6-13.7 1.6-13.7 22.5 1.6 34.3 23.1 34.3 23.1 19.9 34.2 52.4 24.3 65.2 18.6 2-14.4 7.8-24.3 14.3-29.9-49.9-5.6-102.1-24.8-102.1-110.7 0-24.5 8.8-44.4 23.1-60.1-2.4-5.6-10-28.4 2.2-59.2 0 0 18.8-6 61.6 22.9 17.8-5 37-7.4 56.1-7.5 19 .1 38.2 2.5 56.1 7.5 42.8-29 61.5-22.9 61.5-22.9 12.2 30.9 4.6 53.6 2.2 59.2 14.4 15.7 23.1 35.7 23.1 60.1 0 86-52.4 105-102.3 110.5 8.1 7 15.2 20.6 15.2 41.5 0 30-.3 54.1-.3 61.5 0 6 4 13 15.4 10.8C415.9 438.9 480 355 480 256c0-123.7-100.3-224-224-224" /></symbol><symbol viewBox="0 0 512 512" id="gitlab"><path d="M472.392 211.175l-.615-1.623-60.943-159.044c-2.556-6.346-8.924-10.373-15.754-9.962a16.792 16.792 0 00-9.177 3.414 16.793 16.793 0 00-5.401 8.227L339.37 178.074H172.742L131.61 52.159c-1.88-6.961-8.242-11.832-15.451-11.832a16.032 16.032 0 00-14.908 10.181L40.224 209.496l-.616 1.595c-17.946 46.952-2.557 100.497 37.579 130.756l.196.168.559.392 92.842 69.533 45.889 34.752 27.981 21.126c6.701 5.125 16.075 5.125 22.777 0l27.981-21.126 45.889-34.752 93.401-69.953.252-.196c39.995-30.297 55.33-83.718 37.494-130.616h-.056z" /></symbol><symbol viewBox="0 0 512 512" id="instagram"><path d="M256.1 72.3c59.9 0 67 .3 90.6 1.3 21.9 1 33.7 4.6 41.6 7.7 10.4 4 17.9 8.9 25.7 16.7 7.9 7.9 12.7 15.3 16.8 25.7 3.1 7.9 6.7 19.8 7.7 41.6 1.1 23.6 1.3 30.7 1.3 90.5s-.3 66.9-1.3 90.5c-1 21.9-4.6 33.7-7.7 41.6-4 10.4-8.9 17.9-16.7 25.7-7.9 7.9-15.3 12.7-25.7 16.8-7.9 3.1-19.8 6.7-41.6 7.7-23.6 1.1-30.7 1.3-90.6 1.3-59.9 0-67-.3-90.6-1.3-21.9-1-33.7-4.6-41.6-7.7-10.4-4-17.9-8.9-25.7-16.7-7.9-7.9-12.7-15.3-16.8-25.7-3.1-7.9-6.7-19.8-7.7-41.6-1.1-23.6-1.3-30.7-1.3-90.5s.3-66.9 1.3-90.5c1-21.9 4.6-33.7 7.7-41.6 4-10.4 8.9-17.9 16.7-25.7 7.9-7.9 15.3-12.7 25.7-16.8 7.9-3.1 19.8-6.7 41.6-7.7 23.7-1 30.8-1.3 90.6-1.3m0-40.3c-60.8 0-68.4.3-92.4 1.3-23.8 1-40.2 4.9-54.3 10.4-14.8 5.8-27.3 13.4-39.7 25.9C57.2 82 49.6 94.5 43.8 109.2c-5.5 14.3-9.4 30.5-10.4 54.3-1.1 24.1-1.3 31.6-1.3 92.5s.3 68.4 1.3 92.3c1.1 23.8 4.9 40.2 10.4 54.3 5.8 14.8 13.4 27.3 25.9 39.7 12.4 12.4 24.9 20.1 39.6 25.8 14.3 5.5 30.5 9.4 54.3 10.4 23.9 1.1 31.5 1.3 92.4 1.3 60.9 0 68.5-.3 92.4-1.3 23.8-1.1 40.2-4.9 54.3-10.4 14.7-5.7 27.2-13.4 39.6-25.8 12.4-12.4 20.1-24.9 25.8-39.6 5.5-14.3 9.4-30.5 10.4-54.3 1.1-23.9 1.3-31.5 1.3-92.3s-.3-68.4-1.3-92.3c-1.1-23.8-4.9-40.2-10.4-54.3-5.5-14.9-13.1-27.4-25.6-39.8-12.4-12.4-24.9-20.1-39.6-25.8-14.3-5.6-30.5-9.5-54.3-10.5-23.9-1.1-31.6-1.4-92.5-1.4" /><path d="M256.1 140.9C192.6 140.9 141 192.5 141 256c0 63.5 51.5 115.1 115.2 115.1S371.3 319.5 371.3 256c0-63.4-51.5-115.1-115.2-115.1m0 189.8c-41.2 0-74.7-33.4-74.7-74.6 0-41.2 33.4-74.6 74.7-74.6 41.3 0 74.7 33.4 74.7 74.6 0 41.2-33.4 74.6-74.7 74.6m146.6-194.3c0 14.9-12.1 26.9-26.9 26.9-14.8 0-26.9-12-26.9-26.9 0-14.9 12.1-26.9 26.9-26.9 14.8 0 26.9 12.1 26.9 26.9" /></symbol><symbol viewBox="0 0 512 512" id="linkedin"><path d="M480 64v384c0 19.2-16 32-32 32H64c-19.2 0-32-16-32-32V64c0-19.2 16-32 32-32h384c16 0 32 16 32 32M166.4 204.8H99.2V416h67.2V204.8zm3.2-73.6c0-22.4-16-38.4-38.4-38.4s-38.4 16-38.4 38.4 16 38.4 38.4 38.4c19.2 0 38.4-16 38.4-38.4m243.2 153.6c0-64-41.6-89.6-80-89.6-25.6 0-51.2 12.8-67.2 35.2v-25.6h-60.8V416H272V300.8c-6.4-22.4 12.8-44.8 35.2-44.8h3.2c22.4 0 35.2 12.8 35.2 44.8v112h67.2v-128z" /></symbol><symbol viewBox="0 0 512 512" id="mastodon"><path d="M491.265 116.695c-7.306-53.723-54.64-96.06-110.752-104.264C371.046 11.045 335.178 6 252.09 6h-.62c-83.11 0-100.941 5.045-110.408 6.431-54.55 7.977-104.365 46.02-116.451 100.378-5.813 26.77-6.434 56.45-5.354 83.675 1.54 39.042 1.838 78.016 5.423 116.9a544.415 544.415 0 0012.936 76.674c11.49 46.587 57.996 85.357 103.56 101.174a280.675 280.675 0 00151.516 7.908 226.196 226.196 0 0016.406-4.431c12.201-3.84 26.517-8.136 37.04-15.68.291-.213.469-.549.482-.91v-37.678a1.102 1.102 0 00-.43-.86 1.142 1.142 0 00-.948-.209 424.317 424.317 0 01-98.322 11.363c-56.984 0-72.31-26.747-76.7-37.883a116.297 116.297 0 01-6.663-29.861 1.094 1.094 0 01.866-1.123c.169-.037.345-.034.513.01a416.288 416.288 0 0096.713 11.362c7.836 0 15.648 0 23.484-.204 32.766-.91 67.3-2.568 99.539-8.795.804-.16 1.608-.296 2.298-.5 50.85-9.658 99.24-39.974 104.158-116.74.184-3.023.643-31.657.643-34.793.023-10.658 3.47-75.607-.506-115.513m-78.262 191.552h-53.468V178.713c0-27.27-11.49-41.178-34.858-41.178-25.69 0-38.557 16.453-38.557 48.95v70.903h-53.147v-70.903c0-32.497-12.89-48.95-38.58-48.95-23.23 0-34.834 13.907-34.857 41.178v129.534h-53.423V174.781c0-27.27 7.039-48.935 21.116-64.995 14.522-16.02 33.571-24.247 57.215-24.247 27.366 0 48.046 10.408 61.833 31.202l13.304 22.089 13.327-22.09c13.787-20.793 34.467-31.201 61.787-31.201 23.622 0 42.67 8.226 57.238 24.247 14.078 16.045 21.117 37.71 21.116 64.995l-.046 133.466z" /></symbol><symbol viewBox="0 0 512 512" id="researchgate"><path d="M0 0v512h512V0H0zm299.712 381.12a40.5 40.5 0 01-14.592 2.496 53.927 53.927 0 01-41.856-18.24 470.998 470.998 0 01-47.424-72.256h-24.448v52.736c0 19.584 4.48 23.68 13.056 24.896l16.384 2.24v9.152c-7.808 0-26.176-.96-40.448-.96-14.272 0-29.632.576-38.144.96v-9.152l11.84-2.24c8.192-1.536 12.928-5.312 12.928-24.896V220.928c-.384-20.032-5.12-23.488-13.376-25.024l-11.84-2.112v-9.216h33.216c12.672 0 28.672-.96 47.424-.96 35.584 0 63.424 16.384 63.424 51.776-1.112 25.865-19.239 47.858-44.416 53.888a377.011 377.011 0 0047.36 66.944 46.375 46.375 0 0030.912 16.704v8.192zm65.984-194.56c0 13.952-2.56 22.912-9.6 30.592-8.128 8.64-18.176 12.288-29.44 12.288a38.618 38.618 0 01-28.032-11.584c-10.496-10.624-10.368-22.592-10.368-43.456 0-20.864-.128-32.896 10.368-43.52a37.736 37.736 0 0128.032-11.52c18.24 0 30.4 9.792 35.968 23.296l-14.72 6.016c-3.52-9.216-10.816-14.528-21.248-14.528a21.458 21.458 0 00-15.744 6.72c-5.184 5.76-6.464 11.904-6.464 33.6s1.216 27.968 6.464 33.728a21.21 21.21 0 0015.744 6.528 22.59 22.59 0 0017.408-7.616c3.904-4.544 5.376-10.048 5.376-17.024V184h-20.736v-14.016h36.992v16.576z" /><path d="M238.912 237.184c0-25.216-15.744-39.104-42.304-39.104h-25.6v79.296c7.36.576 11.84.96 22.784.96 28.032.576 45.12-16.256 45.12-41.152" /></symbol><symbol viewBox="0 0 512 512" id="rss"><circle cx="93.4" cy="418.6" r="61.4" /><path d="M329 480h-87c0-115.9-94-209.9-209.9-209.9v-87C196 183 329 316 329 480" /><path d="M390.4 480c0-197.9-160.5-358.4-358.4-358.4V32c247.4 0 448 200.6 448 448h-89.6z" /></symbol><symbol viewBox="0 0 512 512" id="telegram"><path d="M256 32C132.288 32 32 132.288 32 256s100.288 224 224 224 224-100.288 224-224S379.712 32 256 32m103.828 152.338c-3.371 35.42-17.957 121.374-25.378 161.045-3.14 16.786-9.323 22.414-15.308 22.965-13.008 1.197-22.886-8.597-35.485-16.855-19.715-12.923-30.853-20.968-49.989-33.579-22.116-14.574-7.779-22.584 4.825-35.675 3.298-3.426 60.612-55.557 61.722-60.287.139-.591.268-2.796-1.042-3.96-1.31-1.164-3.243-.766-4.638-.449-1.977.449-33.472 21.266-94.484 62.451-8.94 6.139-17.037 9.13-24.292 8.973-7.998-.173-23.383-4.522-34.82-8.24-14.028-4.56-25.177-6.971-24.206-14.715.505-4.033 6.06-8.159 16.664-12.376 65.3-28.45 108.844-47.206 130.632-56.269 62.207-25.874 75.133-30.369 83.558-30.517 1.853-.033 5.996.427 8.68 2.604 2.266 1.839 2.89 4.323 3.188 6.066.298 1.743.67 5.715.375 8.818h-.002z" /></symbol><symbol viewBox="0 0 512 512" id="threads"><path d="M259.472 480h-.134c-66.842-.448-118.227-22.49-152.768-65.498-30.688-38.304-46.547-91.571-47.085-158.323v-.314c.538-66.797 16.397-120.019 47.13-158.323C141.111 54.489 192.541 32.448 259.338 32h.269c51.251.358 94.125 13.53 127.411 39.155 31.315 24.102 53.357 58.419 65.498 102.054l-38.08 10.618c-20.608-73.92-72.755-111.686-155.008-112.269-54.298.403-95.379 17.472-122.08 50.714C112.394 153.408 99.492 198.387 98.999 256c.493 57.613 13.395 102.592 38.394 133.728 26.701 33.286 67.782 50.355 122.08 50.714 48.966-.358 81.357-11.782 108.282-38.17 30.733-30.106 30.195-67.066 20.339-89.555-5.779-13.261-16.307-24.282-30.509-32.659-3.584 25.222-11.603 45.651-23.968 61.062-16.531 20.563-39.962 31.808-69.619 33.421-22.445 1.21-44.083-4.077-60.838-14.963-19.846-12.858-31.45-32.48-32.704-55.328-1.21-22.221 7.616-42.65 24.819-57.523 16.442-14.202 39.558-22.534 66.886-24.102 20.115-1.12 38.976-.224 56.358 2.643-2.33-13.843-6.989-24.864-13.978-32.794-9.587-10.931-24.416-16.486-44.038-16.621h-.538c-15.77 0-37.184 4.346-50.803 24.64l-32.794-21.997c18.278-27.149 47.936-42.112 83.597-42.112h.806c59.629.358 95.155 36.87 98.694 100.576 2.016.851 4.032 1.747 6.003 2.643 27.821 13.082 48.16 32.883 58.867 57.299 14.874 34.003 16.262 89.421-28.896 133.638-34.541 33.779-76.429 49.056-135.834 49.459h-.134l.001.001zm18.726-218.221c-4.525 0-9.094.134-13.798.403-34.272 1.926-55.642 17.651-54.432 40.006 1.254 23.43 27.104 34.317 51.968 32.973 22.848-1.21 52.595-10.125 57.613-69.261-12.634-2.733-26.477-4.122-41.35-4.122l-.001.001z" /></symbol><symbol viewBox="0 0 512 512" id="vimeo"><path d="M479.8 151.8c-2 43.6-32.5 103.3-91.4 179.1-60.9 79.2-112.4 118.8-154.6 118.8-26.1 0-48.2-24.1-66.2-72.3-12.1-44.2-24.1-88.4-36.1-132.6-13.4-48.2-27.7-72.3-43.1-72.3-3.3 0-15.1 7.1-35.2 21.1L32 166.5c22.1-19.4 43.9-38.9 65.4-58.3C126.9 82.8 149 69.4 163.8 68c34.8-3.3 56.4 20.5 64.4 71.5 8.7 55 14.7 89.3 18.1 102.6 10.1 45.7 21.1 68.5 33.2 68.5 9.4 0 23.5-14.8 42.3-44.5 18.7-29.6 28.8-52.2 30.2-67.6 2.7-25.6-7.4-38.4-30.2-38.4-10.8 0-21.8 2.5-33.2 7.4 22.1-72.1 64.1-107.1 126.2-105.1 45.9 1.2 67.7 31.1 65 89.4" /></symbol><symbol viewBox="0 0 512 512" id="vk"><path d="M469.7 141c3.1-10.4 0-18-14.8-18h-49c-12.5 0-18.2 6.6-21.3 13.9 0 0-24.9 60.8-60.2 100.2-11.4 11.4-16.6 15.1-22.8 15.1-3.1 0-7.8-3.6-7.8-14V141c0-12.5-3.5-18-13.8-18h-77c-7.8 0-12.5 5.8-12.5 11.3 0 11.8 17.7 14.5 19.5 47.8v72.2c0 15.8-2.9 18.7-9.1 18.7-16.6 0-57-61-81-130.8-4.7-13.6-9.4-19.1-21.9-19.1H49c-14 0-16.8 6.6-16.8 13.9 0 13 16.6 77.4 77.4 162.5 40.5 58.2 97.6 89.7 149.5 89.7 31.2 0 35-7 35-19.1v-44c0-14 2.9-16.8 12.8-16.8 7.3 0 19.7 3.6 48.8 31.7 33.2 33.2 38.7 48.1 57.4 48.1h49c14 0 21-7 17-20.8-4.4-13.8-20.3-33.7-41.3-57.4-11.4-13.5-28.6-28-33.7-35.3-7.3-9.3-5.2-13.5 0-21.8-.3-.1 59.4-84.2 65.6-112.8" /></symbol><symbol viewBox="0 0 512 512" id="whatsapp"><path d="M433.147 77.802C386.151 30.746 323.647 4.818 257.05 4.794 119.82 4.794 8.137 116.467 8.089 253.732c-.024 43.88 11.448 86.711 33.233 124.457L6 507.206l131.977-34.618c36.36 19.84 77.305 30.284 118.966 30.297h.107c137.206 0 248.903-111.685 248.95-248.95.024-66.525-25.844-129.065-72.853-176.121v-.012zM257.05 460.842h-.083c-37.125-.011-73.545-9.992-105.321-28.84l-7.557-4.488-78.32 20.543 20.902-76.363-4.918-7.83c-20.71-32.946-31.657-71.026-31.633-110.12.047-114.083 92.87-206.907 207.015-206.907 55.268.024 107.22 21.57 146.289 60.689 39.07 39.106 60.569 91.105 60.545 146.385-.048 114.096-92.87 206.92-206.919 206.92v.011zm113.499-154.968c-6.22-3.116-36.802-18.157-42.509-20.234-5.705-2.077-9.847-3.115-13.99 3.116-4.142 6.231-16.067 20.245-19.696 24.387-3.629 4.154-7.258 4.668-13.478 1.551-6.218-3.115-26.26-9.68-50.027-30.869-18.49-16.497-30.978-36.861-34.606-43.093-3.63-6.23-.382-9.597 2.72-12.689 2.794-2.793 6.22-7.27 9.336-10.899 3.116-3.629 4.143-6.23 6.219-10.373 2.078-4.154 1.039-7.782-.512-10.899-1.553-3.115-13.99-33.734-19.184-46.184-5.05-12.128-10.182-10.481-13.99-10.684-3.63-.18-7.77-.215-11.925-.215-4.155 0-10.888 1.552-16.593 7.783-5.706 6.23-21.774 21.284-21.774 51.89s22.288 60.2 25.403 64.355c3.115 4.154 43.868 66.979 106.264 93.933 14.839 6.41 26.43 10.242 35.465 13.107 14.899 4.739 28.459 4.07 39.178 2.47 11.95-1.79 36.803-15.052 41.983-29.58 5.18-14.528 5.18-26.99 3.63-29.58-1.552-2.59-5.706-4.154-11.925-7.27l.011-.023z" /></symbol><symbol viewBox="0 0 512 512" id="x"><path d="M297.7 221.7L460.9 32h-38.7L280.5 196.7 167.4 32H36.8l171.1 249.1L36.8 480h38.7l149.6-173.9L344.6 480h130.5L297.6 221.7h.1zm-53 61.6l-17.3-24.8-138-197.4h59.4l111.3 159.3 17.3 24.8 144.7 207h-59.4L244.6 283.3h.1z" /></symbol><symbol viewBox="0 0 512 512" id="xing"><path d="M100.1 120.5c-3.8 0-7.2 1.4-8.8 4-1.7 2.8-1.4 6.3.4 9.9l43.7 75.6c.1.2.1.3 0 .3L66.6 331.5c-1.8 3.6-1.7 7.2 0 9.9 1.7 2.6 4.6 4.4 8.4 4.4h64.6c9.6 0 14.3-6.6 17.6-12.5 0 0 67.1-118.7 69.7-123.4-.3-.4-44.5-77.4-44.5-77.4-3.2-5.7-8-12.1-18-12.1l-64.3.1zM371.5 32c-9.6 0-13.8 6-17.3 12.3 0 0-139.2 246.8-143.8 254.9.3.4 91.8 168.4 91.8 168.4 3.2 5.7 8.1 12.3 18 12.3h64.6c3.9 0 6.9-1.5 8.6-4.1 1.8-2.8 1.7-6.4-.2-10l-91-166.5c-.1-.2-.1-.3 0-.4L445.3 46.1c1.8-3.6 1.8-7.2.2-10-1.7-2.6-4.7-4.1-8.6-4.1h-65.4z" /></symbol><symbol viewBox="0 0 512 512" id="youtube"><path d="M470.4 147.2C464 128 451.2 112 432 108.8c-35.2-9.6-176-9.6-176-9.6s-140.8 0-176 9.6c-19.2 6.4-32 19.2-38.4 38.4C32 182.4 32 256 32 256s0 73.6 9.6 108.8C48 384 60.8 400 80 403.2c35.2 9.6 176 9.6 176 9.6s140.8 0 176-9.6c19.2-6.4 35.2-19.2 38.4-38.4C480 329.6 480 256 480 256s0-73.6-9.6-108.8m-259.2 176V188.8L326.4 256l-115.2 67.2z" /></symbol></svg>